<?xml version="1.0" encoding="iso-8859-1"?>
<!-- Generator: Adobe Illustrator 17.1.0, SVG Export Plug-In . SVG Version: 6.00 Build 0)  -->
<!DOCTYPE svg PUBLIC "-//W3C//DTD SVG 1.1//EN" "http://www.w3.org/Graphics/SVG/1.1/DTD/svg11.dtd">
<svg xmlns="http://www.w3.org/2000/svg" xmlns:xlink="http://www.w3.org/1999/xlink" version="1.1" id="Capa_1" x="0px" y="0px" viewBox="0 0 377.716 377.716" style="enable-background:new 0 0 377.716 377.716;" xml:space="preserve" width="512px" height="512px">
<path d="M175.549,337.887c-5.445,17.806-22.084,31.074-49.458,39.435c-0.876,0.268-1.761,0.395-2.632,0.395  c-3.854,0-7.42-2.496-8.604-6.374c-1.452-4.753,1.225-9.785,5.979-11.236c21.298-6.505,33.916-15.751,37.502-27.483  c1.454-4.753,6.482-7.431,11.239-5.975C174.326,328.102,177.002,333.134,175.549,337.887z M109.786,60.148  c1.667,2.888,4.692,4.502,7.803,4.502c1.527,0,3.074-0.389,4.491-1.207c4.305-2.485,5.78-7.989,3.295-12.294l-18.323-31.739  c-2.484-4.305-7.99-5.78-12.294-3.295c-4.305,2.485-5.78,7.989-3.295,12.294L109.786,60.148z M77.893,114.515  c2.485-4.304,1.011-9.809-3.294-12.294L42.86,83.896c-4.305-2.484-9.809-1.01-12.294,3.294c-2.486,4.305-1.011,9.809,3.294,12.294  l31.739,18.325c1.417,0.819,2.964,1.208,4.492,1.208C73.201,119.016,76.226,117.402,77.893,114.515z M255.634,63.443  c1.417,0.818,2.964,1.207,4.491,1.207c3.11,0,6.136-1.615,7.803-4.502l18.323-31.739c2.485-4.305,1.01-9.809-3.295-12.294  c-4.304-2.485-9.808-1.009-12.294,3.295l-18.323,31.739C249.854,55.454,251.329,60.958,255.634,63.443z M188.856,54.648  c4.971,0,9-4.029,9-9V9c0-4.971-4.029-9-9-9s-9,4.029-9,9v36.648C179.856,50.619,183.885,54.648,188.856,54.648z M131.623,328.904  c0-4.971-4.029-9-9-9c-19.225,0-34.866-15.642-34.866-34.868v-86.545c0-13.072,2.489-25.808,7.396-37.854  c1.876-4.603-0.335-9.855-4.938-11.73c-4.6-1.875-9.855,0.335-11.731,4.938c-5.791,14.212-8.727,29.234-8.727,44.646v86.545  c0,29.151,23.715,52.868,52.866,52.868C127.594,337.904,131.623,333.875,131.623,328.904z M188.855,79.393  c-23.05,0-45.454,6.669-64.79,19.285c-4.163,2.716-5.335,8.293-2.62,12.456c2.717,4.164,8.294,5.335,12.456,2.62  c16.403-10.703,35.406-16.36,54.955-16.36c55.747,0,101.101,45.352,101.101,101.098v86.545c0,19.227-15.642,34.868-34.868,34.868  c-4.971,0-9,4.029-9,9s4.029,9,9,9c29.151,0,52.868-23.717,52.868-52.868v-86.545C307.957,132.82,254.528,79.393,188.855,79.393z   M347.151,87.189c-2.484-4.304-7.988-5.778-12.294-3.294l-31.741,18.325c-4.305,2.485-5.779,7.99-3.294,12.294  c1.667,2.887,4.692,4.501,7.803,4.501c1.527,0,3.075-0.389,4.492-1.207l31.741-18.325C348.161,96.999,349.636,91.494,347.151,87.189  z M264.52,220.934c0-13.974-2.232-26.862-6.635-38.311c-0.103-0.281-0.22-0.559-0.353-0.833c-0.723-1.5-1.82-2.719-3.133-3.588  c-0.002-0.001-0.005-0.003-0.007-0.004c0,0-0.001-0.001-0.002-0.001c-0.232-0.153-0.469-0.294-0.712-0.424  c-0.003-0.002-0.006-0.003-0.01-0.005c-2-1.066-4.39-1.376-6.693-0.72c-0.349,0.099-0.693,0.219-1.032,0.362  c-0.675,0.283-1.299,0.64-1.865,1.058c-13.145,9.087-33.179,14.321-55.017,14.364c-4.97,0.01-8.992,4.047-8.982,9.018  c0.01,4.964,4.038,8.982,9,8.982c0.006,0,0.012,0,0.019,0c20.48-0.041,39.889-4.209,55.066-11.65  c1.566,6.745,2.357,14.023,2.357,21.752c0,27.149-13.906,52.12-36.291,65.167c-8.718,5.082-15.311,7.354-21.374,7.366  c-6.063-0.013-12.655-2.285-21.373-7.367c-22.385-13.046-36.291-38.017-36.291-65.167c0-7.723,0.789-14.997,2.353-21.736  c1.664,0.819,3.378,1.599,5.14,2.337l0.9,0.378c6.036,2.537,10.397,4.37,15.415,2.23c4.926-2.101,6.611-6.488,8.562-11.568  c0.414-1.077,0.884-2.303,1.443-3.688c2.375-5.882,4.995-13.153,5.962-16.551c1.361-4.781-1.41-9.76-6.19-11.121  c-4.783-1.363-9.76,1.411-11.121,6.19c-0.707,2.482-3.022,8.998-5.342,14.744c-0.498,1.234-0.931,2.349-1.317,3.353  c-0.147-0.062-0.293-0.123-0.438-0.184l-0.917-0.385c-4.466-1.871-8.505-4.046-12.01-6.467c-0.553-0.408-1.162-0.758-1.82-1.039  c-0.364-0.156-0.735-0.286-1.111-0.39c-0.002-0.004-0.005-0.001-0.006-0.002c-2.298-0.642-4.678-0.326-6.668,0.742  c-0.004,0.002-0.007,0.004-0.01,0.006c-0.246,0.132-0.487,0.276-0.721,0.432c-1.311,0.872-2.405,2.093-3.125,3.596  c-0.128,0.266-0.242,0.536-0.342,0.81c-4.404,11.448-6.636,24.337-6.636,38.313c0,33.53,17.33,64.459,45.227,80.718  c11.62,6.774,21.003,9.801,30.423,9.815c0.004,0,0.008,0,0.013,0h0h0c0.004,0,0.009,0,0.013,0c9.42-0.014,18.803-3.042,30.424-9.815  C247.19,285.392,264.52,254.463,264.52,220.934z M256.351,360.106c-21.296-6.504-33.914-15.751-37.501-27.483  c-1.454-4.752-6.482-7.427-11.238-5.975c-4.753,1.454-7.428,6.485-5.975,11.238c5.445,17.807,22.085,31.074,49.457,39.434  c0.876,0.268,1.761,0.395,2.632,0.395c3.854,0,7.42-2.496,8.605-6.374C263.781,366.589,261.105,361.558,256.351,360.106z   M188.874,274.799c6.02-0.012,10.648-3.514,13.606-6.147c3.712-3.305,4.043-8.994,0.738-12.707  c-3.304-3.711-8.993-4.043-12.707-0.738c-0.746,0.664-1.288,1.072-1.656,1.32c-0.368-0.248-0.91-0.656-1.655-1.319  c-3.713-3.305-9.401-2.975-12.707,0.737c-3.306,3.712-2.976,9.401,0.737,12.707C178.188,271.285,182.816,274.787,188.874,274.799z" fill="#7e57c2"/>
<g>
</g>
<g>
</g>
<g>
</g>
<g>
</g>
<g>
</g>
<g>
</g>
<g>
</g>
<g>
</g>
<g>
</g>
<g>
</g>
<g>
</g>
<g>
</g>
<g>
</g>
<g>
</g>
<g>
</g>
</svg>
