<svg xmlns="http://www.w3.org/2000/svg" viewBox="0 0 345.02 345.02"><defs><style>.cls-1{fill:#104938;}.cls-2{fill:#e5dcdc;}.cls-3{fill:#e1e528;}.cls-4{fill:#25a6b7;}.cls-5{fill:#0c5977;}.cls-6{fill:#3f2060;}.cls-7{fill:#fff;}.cls-8{fill:#64377c;}.cls-9{fill:#eac928;}.cls-10,.cls-11{fill:none;stroke-miterlimit:10;}.cls-10{stroke:#000;}.cls-11{stroke:#219400;stroke-width:40px;}</style></defs><title>family</title><g id="Layer_2" data-name="Layer 2"><g id="Layer_1-2" data-name="Layer 1"><path class="cls-1" d="M345,172.5c0,101.75-90,171-172.5,172.5-63.18,1.14-108.26-37.72-121.4-49.95C39,282.25-1.11,236.69,0,172.5,1.48,89.87,70.86,0,172.52,0A172.5,172.5,0,0,1,345,172.5Z"/><path d="M49.24,100.17c-.24.44-.46.88-.68,1.33.19-.38.36-.73.53-1.06A1.82,1.82,0,0,1,49.24,100.17Z"/><path d="M50,98.87c-.26.43-.5.86-.73,1.3C49.45,99.77,49.69,99.34,50,98.87Z"/><path d="M96.74,94.73l-.47-.57.08.09Z"/><path d="M93.6,102.44l-.27-.7C93.41,101.94,93.5,102.17,93.6,102.44Z"/><path d="M94.57,105.54a20.9,20.9,0,0,1,.7,3.13A31.62,31.62,0,0,0,94.57,105.54Z"/><path d="M95.87,115.51a41.9,41.9,0,0,1-3.34,15.42,34.09,34.09,0,0,1-3.13,5.61l-33.77,4.8A26.92,26.92,0,0,1,53.21,139a35.71,35.71,0,0,1-9-23.48,36.81,36.81,0,0,1,1.49-9.85,18.48,18.48,0,0,0,8.7-4.53c2.29-2.1,4-4.2,4.17-4,.34.4-6.18,9-5.63,9.71.36.45,3.46-2.36,5.63-4.75,3.21-3.53,5-5.46,6.8-8.7.53-.94.93-1.74,1.22-1.63.62.23.7,4.35-.91,7.5-1.15,2.26-2.62,2.93-2.5,3.17.2.42,5-1.34,6.16-5.42.37-1.28.19-2.13.5-2.25,1-.36,2.25,7.34,6.21,12.17,6.22,7.58,17.93,6.73,19.1,3.41a3.74,3.74,0,0,0,.07-1.67A38.25,38.25,0,0,1,95.87,115.51Z"/><path d="M103.26,116.84c-.9-10.11-1.43-15.16-4.13-20.78-1.25-2.58-4.2-8.54-10.13-12.18-5.63-3.46-12-3.61-14.06-3a10.77,10.77,0,0,1-4.19.5,12,12,0,0,1-3.39-.66c-3.77-1.17-8.63-.09-11.93,1.5a23.23,23.23,0,0,0-7.31,6,39.68,39.68,0,0,0-6.77,10.33,46.21,46.21,0,0,0-3.66,21.67c.4,5.52,1,14,6.09,18.49,2.64,2.32,6.07,3.19,9.62,4.09,1.2.3,4.3,1.08,4.52.35s-2.53-2.17-4.71-4.12c-6.22-5.59-6.89-15-7.49-23.48a68.37,68.37,0,0,1,0-9.85,18.48,18.48,0,0,0,8.7-4.53c2.29-2.1,4-4.2,4.17-4,.34.4-6.18,9-5.63,9.71.36.45,3.46-2.36,5.63-4.75,3.21-3.53,5-5.46,6.8-8.7.53-.94.93-1.74,1.22-1.63.62.23.7,4.35-.91,7.5-1.15,2.26-2.62,2.93-2.5,3.17.2.42,5-1.34,6.16-5.42.37-1.28.19-2.13.5-2.25,1-.36,2.25,7.34,6.21,12.17,6.22,7.58,17.93,6.73,19.1,3.41a3.74,3.74,0,0,0,.07-1.67,31.62,31.62,0,0,0-.7-3.13,20.9,20.9,0,0,1,.7,3.13,38.25,38.25,0,0,1,.6,6.84,41.9,41.9,0,0,1-3.34,15.42,34.09,34.09,0,0,1-3.13,5.61q-2.43,2.63-4.84,5.27c1.52.17,13.42,1.32,17.89-7.3C104.35,130.84,104.1,126.16,103.26,116.84ZM47.82,100.17c-.2.44-.39.88-.59,1.33.16-.38.32-.73.46-1.06.05-.09.09-.18.13-.27.19-.4.4-.83.65-1.3C48.24,99.3,48,99.73,47.82,100.17ZM74,84.13l.39.07.24.06Zm15.17,10,.07.09.34.48Zm4.16,7.58c.08.2.17.43.27.7Z"/><path d="M49.09,100.44a1.82,1.82,0,0,1,.15-.27c-.24.44-.46.88-.68,1.33C48.75,101.12,48.92,100.77,49.09,100.44Z"/><path d="M49.24,100.17c.21-.4.45-.83.73-1.3C49.71,99.3,49.47,99.73,49.24,100.17Z"/><path d="M96.35,94.25l.39.48-.47-.57Z"/><path d="M93.33,101.74c.08.2.17.43.27.7Z"/><path d="M95.27,108.67a31.62,31.62,0,0,0-.7-3.13A20.9,20.9,0,0,1,95.27,108.67Z"/><path class="cls-2" d="M47.83,132.48c-3,1-6.25-1-7.19-4.5s.78-7.09,3.82-8.08S50.87,131.49,47.83,132.48Z"/><path class="cls-2" d="M95.43,119.88c3.13.87,5.16,4.4,4.54,7.89s-3.67,5.63-6.8,4.77S92.3,119,95.43,119.88Z"/><path class="cls-3" d="M95,131.26c-.74,0-1.36,2.15-2.12,4.82s-1.09,3.86-.89,5.33c.26,2.05,1.47,4.85,3,4.85s2.74-2.59,3-4.67c.08-.63.08-1.32-1.14-5.58C95.52,131.59,95.23,131.27,95,131.26Z"/><path class="cls-2" d="M95.87,115.51a41.9,41.9,0,0,1-3.34,15.42,34.09,34.09,0,0,1-3.13,5.61l-.41.56c-3.94,5.31-10.7,10.39-18.92,10.16a23.3,23.3,0,0,1-14.44-5.92A26.92,26.92,0,0,1,53.21,139a35.71,35.71,0,0,1-9-23.48,36.81,36.81,0,0,1,1.49-9.85,18.48,18.48,0,0,0,8.7-4.53c2.29-2.1,4-4.2,4.17-4,.34.4-6.18,9-5.63,9.71.36.45,3.46-2.36,5.63-4.75,3.21-3.53,5-5.46,6.8-8.7.53-.94.93-1.74,1.22-1.63.62.23.7,4.35-.91,7.5-1.15,2.26-2.62,2.93-2.5,3.17.2.42,5-1.34,6.16-5.42.37-1.28.19-2.13.5-2.25,1-.36,2.25,7.34,6.21,12.17,6.22,7.58,17.93,6.73,19.1,3.41a3.74,3.74,0,0,0,.07-1.67A38.25,38.25,0,0,1,95.87,115.51Z"/><path class="cls-3" d="M44.74,131.26c-.73,0-1.36,2.15-2.12,4.82s-1.08,3.86-.89,5.33c.27,2.05,1.47,4.85,3,4.85s2.73-2.59,3-4.67c.08-.63.07-1.32-1.14-5.58C45.31,131.59,45,131.28,44.74,131.26Z"/><path class="cls-4" d="M122.4,237.43c0,48.21-103.33,48.21-103.33,0,0-11.42-.53-22.37,4.46-35.54,1.73-4.58,19.72-50.66,47.2-51.75,24.11-1,39.34,35.12,44.73,47.43C121.94,212.35,122.4,224.79,122.4,237.43Z"/><path class="cls-5" d="M115.66,217.59c-12.92,27.37-78.59,28.2-92,3.17-6.08-11.34-2.4-29.79,7-45.16,9.17-15,23.79-27.07,40.08-26.72,14.85.32,28.31,10.9,37.09,24.35C117.29,187.76,121.29,205.64,115.66,217.59Z"/><ellipse class="cls-2" cx="269.09" cy="101.22" rx="26" ry="29.25"/><path class="cls-6" d="M324.43,233.7c0,54.78-109.68,54.78-109.68,0s24.55-99.18,54.84-99.18S324.43,178.93,324.43,233.7Z"/><path class="cls-7" d="M249.16,82.93c3.4.46,8.2,1,14,1.42,1.41.09,13.86.93,13.93,0,0-.64-5.76-2-5.74-2.14s6.44,2.53,13.79.53c.86-.23,3.75-1.48,3.88-1.49h0c0-.07-.45-.67-.63-.89-1.36-1.66-1.29-1.66-1.86-2.3a30.89,30.89,0,0,0-5-4.4,23.2,23.2,0,0,0-5.09-2.58c-2.26-.8-3.89.09-5.68,0s-3.94-1-5-.83A22.14,22.14,0,0,0,257,74.16a29.43,29.43,0,0,0-7.55,8.27"/><path class="cls-8" d="M317.11,213.58c-13.35,32-81.2,33-95.06,3.7-6.27-13.25-2.47-34.82,7.23-52.78,9.48-17.54,24.58-31.65,41.41-31.24C286,133.64,299.94,146,309,161.73,318.8,178.71,322.93,199.61,317.11,213.58Z"/><path class="cls-2" d="M186.06,154c0,11.85-8.78,21.46-19.61,21.46s-19.6-9.61-19.6-21.46,8.78-21.47,19.6-21.47a14.33,14.33,0,0,1,2.34.15C176.33,133.84,186.06,141.84,186.06,154Z"/><path class="cls-2" d="M205,240.64c-10.78,25-65.56,25.76-76.75,2.9-5.07-10.36-2-27.21,5.84-41.25,7.65-13.7,19.84-24.73,33.43-24.4,12.39.29,23.62,10,30.94,22.24C206.35,213.4,209.69,229.73,205,240.64Z"/><path class="cls-9" d="M200.18,225c-9.31,18.78-56.6,19.35-66.26,2.17-4.38-7.78-1.72-20.43,5-31,6.6-10.29,17.13-18.57,28.86-18.33,10.69.22,20.39,7.48,26.71,16.71C201.35,204.55,204.24,216.82,200.18,225Z"/><path class="cls-10" d="M158.57,138.53c0-4.42,7.46-8,16.68-8"/><path class="cls-10" d="M161.44,138.53c.83-4.32,8.81-6.13,17.83-4"/><path class="cls-10" d="M163.86,139.4c.55-3,6.83-4.14,14-2.55"/><path class="cls-11" d="M323,113.83,101.59,289.65,32.8,203.85"/></g></g></svg>