<svg xmlns="http://www.w3.org/2000/svg" viewBox="0 0 307 307"><defs><style>.cls-1{fill:#3e7fba;}.cls-2{fill:#fff;}.cls-3{fill:#e5dcdc;}</style></defs><title>location_share_1</title><g id="Layer_2" data-name="Layer 2"><g id="Layer_1-2" data-name="Layer 1"><circle cx="153.5" cy="153.5" r="153.5"/><path class="cls-1" d="M190.77,99.94l5.52-18.51c-.89,3.06-1.8,6.12-2.71,9.21S191.71,96.86,190.77,99.94Z"/><path class="cls-1" d="M168.94,82.41A24.38,24.38,0,0,1,125.53,84Z"/><path class="cls-1" d="M198,78.58a51.31,51.31,0,0,1-.92,9.67l-27.35,1A24.38,24.38,0,0,1,126.3,90.8l-27.37,1,6.75,15.94a50.47,50.47,0,0,1-9.1-25.91c-.07-1.07-.1-2.15-.1-3.24a50.75,50.75,0,0,1,101.5,0Z"/><path class="cls-1" d="M197.06,88.25h0q-2.69,9.07-5.39,18.15L148.75,209.33,103.48,108.17q-3-9.72-6-19.43l28.8,2.06a24.34,24.34,0,0,0,21.3,12.53,28.06,28.06,0,0,0,7.24-1.09c5.69-1.75,12.26-8,16.42-17.35Z"/><path class="cls-2" d="M172,79A24.38,24.38,0,1,1,147.6,54.58,24.17,24.17,0,0,1,172,79Z"/><path class="cls-3" d="M240.9,223.5a187.41,187.41,0,0,0-27.45,6.36c-7,2.19-10.55,3.77-18.41,5.65-7.09,1.69-12.73,3-19.65,3.17-13.47.26-24.66-4.23-31.51-7.06-11.68-4.82-18-9.89-20-7.41-1.4,1.73.08,6.2,1.87,8.82,1.89,2.78,4.24,3.62,10.29,6,7.73,3,11.59,4.57,11.55,4.94-.18,1.47-19.91,2.4-43.37-2.82-16.78-3.74-24-9.91-31.17-6.63a12.46,12.46,0,0,0-7,12.16c.64,6.78,8,10.95,13.17,13.81,12.58,6.92,14.92,4.9,38.68,8.91,25,4.2,27,5.11,33.07,3.53,12.68-3.33,17.83-6.72,24.95-9.18,13.59-4.7,28.07-1.35,29.79-.93,8.53,2.06,12.52,5.56,22.77,6.05a49.93,49.93,0,0,0,11.23-.76"/></g></g></svg>